<svg width="70" height="64" viewBox="0 0 70 64" fill="none" xmlns="http://www.w3.org/2000/svg">
<g clip-path="url(#clip0_207_364)">
<path d="M53.4394 25.3483H13.5581C11.2023 25.3483 9.28516 27.142 9.28516 29.3464V32.0117C9.28516 41.5218 14.8999 50.1471 23.9358 54.521C24.6337 54.8568 25.4939 54.6036 25.8558 53.9479C26.2147 53.2948 25.9441 52.4899 25.2433 52.1514C17.1588 48.2386 12.1338 40.5223 12.1338 32.0116V29.3462C12.1338 28.6106 12.7719 28.0135 13.5581 28.0135H53.4394C54.2256 28.0135 54.8638 28.6106 54.8638 29.3462V32.0116C54.8638 40.5222 49.8387 48.2385 41.7514 52.1486C41.0507 52.4871 40.78 53.2921 41.1389 53.9451C41.3925 54.4035 41.891 54.6674 42.4065 54.6674C42.6287 54.6674 42.8509 54.6194 43.0588 54.5181C52.0977 50.1468 57.7124 41.5243 57.7124 32.0115V29.3461C57.7124 27.142 55.7951 25.3483 53.4394 25.3483Z" fill="black"/>
<path d="M66.153 52.823C65.9308 52.3246 65.4123 51.9994 64.8369 51.9994H2.16645C1.59107 51.9994 1.07257 52.3246 0.850372 52.823C0.628176 53.3214 0.750624 53.8945 1.15803 54.2757L4.35142 57.2662C6.23727 59.028 8.73831 59.9983 11.4018 59.9983H55.5959C58.2594 59.9983 60.7634 59.0282 62.6521 57.2662L65.8455 54.2757C66.2527 53.8945 66.3752 53.3214 66.153 52.823ZM60.6352 55.3818C59.2907 56.6398 57.4988 57.3328 55.5988 57.3328H11.4018C9.50183 57.3328 7.70999 56.6398 6.36546 55.3818L5.60207 54.6675H61.3986L60.6352 55.3818Z" fill="black"/>
<path d="M66.3524 31.6412C62.5152 29.333 56.385 31.8385 55.6983 32.129C54.9833 32.4355 54.6643 33.2245 54.9918 33.8962C55.3194 34.5678 56.1598 34.8637 56.8805 34.5572C58.2536 33.9735 62.6576 32.5902 64.8112 33.8882C65.7826 34.4719 66.2583 35.6047 66.2583 37.3425C66.2583 42.6786 54.7554 45.9038 50.3142 46.698L49.3058 46.8845C48.5339 47.0258 48.0325 47.7268 48.1835 48.4492C48.3174 49.0835 48.9127 49.5233 49.5793 49.5233C49.6705 49.5233 49.7616 49.5153 49.8556 49.4967L50.8554 49.3127C51.6017 49.1794 69.1069 45.9677 69.1069 37.3425C69.107 34.6612 68.1784 32.7447 66.3524 31.6412Z" fill="black"/>
<path d="M44.5887 14.1855C46.9047 11.4775 46.9047 7.23687 44.5887 4.52879C44.0958 3.95307 43.2042 3.85711 42.5861 4.32089C41.9708 4.78205 41.8711 5.6189 42.3639 6.19462C43.831 7.90843 43.831 10.8058 42.3611 12.525C40.0423 15.233 40.0423 19.4736 42.3611 22.1817C42.6431 22.5122 43.0561 22.6829 43.4749 22.6829C43.7854 22.6829 44.1016 22.5869 44.3637 22.3896C44.979 21.9285 45.0787 21.0889 44.5859 20.5159C43.116 18.802 43.116 15.9047 44.5887 14.1855Z" fill="black"/>
<path d="M36.0312 14.1855C38.35 11.4775 38.35 7.23687 36.0312 4.52879C35.5413 3.95306 34.644 3.85973 34.0287 4.32089C33.4134 4.78204 33.3136 5.62164 33.8065 6.19462C35.2764 7.90842 35.2764 10.8058 33.8037 12.525C31.4877 15.233 31.4877 19.4736 33.8037 22.1817C34.0857 22.5122 34.4987 22.6829 34.9175 22.6829C35.2279 22.6829 35.5413 22.5869 35.8062 22.3896C36.4216 21.9285 36.5213 21.0916 36.0284 20.5159C34.5613 18.802 34.5613 15.9047 36.0312 14.1855Z" fill="black"/>
<path d="M27.4967 14.1882C29.8127 11.4802 29.8127 7.23956 27.4967 4.53148C27.0068 3.95575 26.1122 3.8598 25.4941 4.32358C24.8816 4.78198 24.782 5.62158 25.2719 6.19468C26.739 7.90849 26.739 10.8059 25.2691 12.525C22.9503 15.2331 22.9503 19.4737 25.2691 22.1818C25.5511 22.5123 25.9641 22.6829 26.3829 22.6829C26.6934 22.6829 27.0096 22.587 27.2717 22.3924C27.887 21.9313 27.9867 21.0917 27.4939 20.5187C26.024 18.802 26.024 15.9074 27.4967 14.1882Z" fill="black"/>
</g>
<defs>
<clipPath id="clip0_207_364">
<rect width="68.3662" height="63.9679" fill="white" transform="translate(0.740845 0.0285645)"/>
</clipPath>
</defs>
</svg>
